<?xml version="1.0" encoding="iso-8859-1"?>
<!-- Generator: Adobe Illustrator 19.0.0, SVG Export Plug-In . SVG Version: 6.00 Build 0)  -->
<svg version="1.1" id="Layer_1" xmlns="http://www.w3.org/2000/svg" xmlns:xlink="http://www.w3.org/1999/xlink" x="0px" y="0px"
	 viewBox="0 0 464 464" style="enable-background:new 0 0 464 464;" xml:space="preserve">
<polygon style="fill:#34495E;" points="464,216 432,184 32,184 0,216 0,240 464,240 "/>
<rect x="32" style="fill:#66CEDB;" width="400" height="336"/>
<g>
	<rect x="64" y="120" style="fill:#E74C3C;" width="144" height="96"/>
	<rect x="64" y="248" style="fill:#E74C3C;" width="144" height="72"/>
</g>
<g>
	<rect x="32" y="88" style="fill:#00BFC8;" width="400" height="16"/>
	<rect x="232" y="120" style="fill:#00BFC8;" width="176" height="16"/>
	<rect x="232" y="152" style="fill:#00BFC8;" width="176" height="16"/>
	<rect x="232" y="184" style="fill:#00BFC8;" width="176" height="16"/>
	<rect x="232" y="240" style="fill:#00BFC8;" width="168" height="16"/>
	<rect x="232" y="272" style="fill:#00BFC8;" width="104" height="16"/>
	<rect x="120" y="24" style="fill:#00BFC8;" width="160" height="16"/>
	<rect x="120" y="56" style="fill:#00BFC8;" width="112" height="16"/>
	<rect x="392" y="56" style="fill:#00BFC8;" width="16" height="16"/>
	<rect x="360" y="56" style="fill:#00BFC8;" width="16" height="16"/>
	<rect x="328" y="56" style="fill:#00BFC8;" width="16" height="16"/>
</g>
<rect x="56" y="24" style="fill:#FFFFFF;" width="48" height="48"/>
<polygon style="fill:#CE9232;" points="256,320 464,216 464,464 0,464 0,216 208,320 "/>
<polygon style="fill:#F6BF58;" points="0,464 232,304 464,464 "/>
<g>
</g>
<g>
</g>
<g>
</g>
<g>
</g>
<g>
</g>
<g>
</g>
<g>
</g>
<g>
</g>
<g>
</g>
<g>
</g>
<g>
</g>
<g>
</g>
<g>
</g>
<g>
</g>
<g>
</g>
</svg>
